<svg width="481" height="227" viewBox="0 0 481 227" fill="none" xmlns="http://www.w3.org/2000/svg">
<path d="M80.5501 75.7255C80.5501 87.1439 76.3891 95.8883 68.0671 101.969C59.7451 108.05 47.8983 111.096 32.5371 111.096H19.8872V151.989H0V42.6782H35.0295C50.2343 42.6782 61.6118 45.476 69.1934 51.051C76.7645 56.6363 80.5501 64.8543 80.5501 75.7255ZM19.8872 96.0639H30.4514C40.6609 96.0639 48.1486 94.474 52.9144 91.2735C57.6907 88.0834 60.0684 83.0969 60.0684 76.3243C60.0684 70.0473 57.9306 65.3602 53.6653 62.2629C49.4 59.176 42.7362 57.6274 33.6946 57.6274H19.8768V96.0535L19.8872 96.0639Z" fill="black"/>
<path d="M277.25 122.304C277.25 132.029 273.339 139.648 265.518 145.182C257.697 150.715 246.903 153.482 233.148 153.482C219.393 153.482 208.13 151.562 199.359 147.732V130.831C204.907 133.175 210.799 135.013 217.046 136.365C223.282 137.707 229.102 138.378 234.483 138.378C242.356 138.378 248.175 137.036 251.919 134.341C255.663 131.647 257.54 128.033 257.54 123.501C257.54 119.413 255.82 115.944 252.378 113.105C248.937 110.266 241.835 106.9 231.073 103.008C219.977 98.9713 212.155 94.3564 207.608 89.1738C203.062 83.9911 200.788 77.7554 200.788 70.4872C200.788 61.3608 204.396 54.1855 211.602 48.9513C218.809 43.717 228.497 41.105 240.646 41.105C252.795 41.105 263.891 43.3969 275.425 47.9808L269.095 62.5584C258.281 58.47 248.624 56.4259 240.135 56.4259C233.701 56.4259 228.82 57.6854 225.493 60.2045C222.167 62.7235 220.498 66.0479 220.498 70.1878C220.498 73.0269 221.165 75.4634 222.5 77.4766C223.835 79.5001 226.025 81.3997 229.07 83.1961C232.126 84.9925 237.611 87.3567 245.547 90.2991C254.474 93.6337 261.023 96.7516 265.184 99.6423C269.345 102.533 272.39 105.795 274.341 109.44C276.28 113.074 277.25 117.369 277.25 122.304Z" fill="black"/>
<path d="M396.043 97.1877C396.043 114.986 391.09 128.81 381.193 138.68C371.296 148.55 357.27 153.485 339.135 153.485C320.999 153.485 306.671 148.591 296.816 138.794C286.971 128.996 282.049 115.079 282.049 97.0329C282.049 78.9864 287.002 65.1316 296.899 55.4579C306.796 45.7843 320.937 40.9526 339.291 40.9526C357.645 40.9526 371.359 45.8669 381.235 55.6851C391.111 65.5032 396.043 79.3374 396.043 97.1774V97.1877ZM303.177 97.1877C303.177 110.65 306.201 120.85 312.25 127.809C318.298 134.767 327.257 138.246 339.124 138.246C350.992 138.246 359.856 134.809 365.873 127.922C371.891 121.047 374.905 110.805 374.905 97.198C374.905 83.591 371.922 73.6179 365.957 66.6905C359.992 59.7631 351.107 56.2942 339.291 56.2942C327.476 56.2942 318.361 59.7631 312.292 66.6905C306.212 73.6179 303.177 83.7871 303.177 97.198V97.1877Z" fill="black"/>
<path d="M409.395 151.989V42.6782H429.282V136.658H480.788V151.989H409.395Z" fill="black"/>
<path d="M81.3916 42.4628L117.996 92.0595L59.9922 170.749L85.7716 178.4L133.68 113.337L208.62 214.998L248.05 226.695L149.188 92.297L217.223 0L176.98 12.0275L133.347 71.0501L106.649 34.8333L81.3916 42.4628Z" fill="#D20A11"/>
</svg>
